<svg xmlns="http://www.w3.org/2000/svg" width="199.275" height="50.5" viewBox="0 0 199.275 50.5">
  <g id="Group_733" data-name="Group 733" transform="translate(-132.782 -124.775)">
    <g id="Group_730" data-name="Group 730" transform="translate(184.86 139.997)">
      <path id="Path_759" data-name="Path 759" d="M177.766,137.251H189.6l-.724,4.142a14.85,14.85,0,0,1,11.356-4.882c3.4,0,6.883.814,9.14,3.55,2.32,2.811,2.123,5.622,1.489,9.245l-3.676,21H195.352l2.925-16.714c.336-1.922.915-4.808-.353-6.434a4.211,4.211,0,0,0-3.526-1.406,7.587,7.587,0,0,0-4.635,1.553,9.191,9.191,0,0,0-2.842,5.252l-3.106,17.749H171.982Z" transform="translate(-171.982 -136.142)" fill="#0070ac"/>
      <path id="Path_760" data-name="Path 760" d="M208,159.456a13.623,13.623,0,0,0,4.307,2.441,14.067,14.067,0,0,0,4.443.814,5.74,5.74,0,0,0,3.188-.889,2.28,2.28,0,0,0,.864-1.553,1.536,1.536,0,0,0-.333-1.479,6.172,6.172,0,0,0-2.9-1.182l-2.977-.74c-1.562-.369-3.825-.962-5.264-2.884a6.977,6.977,0,0,1-1.149-5.7,14.359,14.359,0,0,1,4.517-8.062c2.968-2.588,7.651-3.994,12.532-3.994a24.493,24.493,0,0,1,10.2,2.144l-5.314,7.545a14.369,14.369,0,0,0-5.928-1.627,5.627,5.627,0,0,0-2.854.666,2.22,2.22,0,0,0-1.319,1.627,1.565,1.565,0,0,0,1.081,1.848c1.032.444,1.993.444,3.752.962l2.042.591a11.217,11.217,0,0,1,4.427,2.589c1.356,1.553,1.791,4.141,1.363,6.583a13.519,13.519,0,0,1-4.764,8.209c-4.518,3.846-10.191,4.141-12.928,4.141a21.4,21.4,0,0,1-12.64-3.845Z" transform="translate(-162.005 -136.233)" fill="#0070ac"/>
      <path id="Path_761" data-name="Path 761" d="M258.345,137.342h11.833L264.394,170.4H252.56l.635-3.624a14.742,14.742,0,0,1-11.109,4.734,13.214,13.214,0,0,1-10.988-5.25c-2.585-3.4-3.478-7.174-2.611-12.129a22.269,22.269,0,0,1,7.42-13.239,20.121,20.121,0,0,1,12.722-4.659,10.794,10.794,0,0,1,9.16,4.29ZM243.98,148.436a9.484,9.484,0,0,0-3.312,5.4,6.572,6.572,0,0,0,1.348,5.4,6.913,6.913,0,0,0,4.937,2.219,9.049,9.049,0,0,0,5.726-2.292,8.8,8.8,0,0,0,3.15-5.326,6.187,6.187,0,0,0-6.3-7.543A8.952,8.952,0,0,0,243.98,148.436Z" transform="translate(-153.524 -136.233)" fill="#0070ac"/>
      <path id="Path_762" data-name="Path 762" d="M265.344,137.2h11.833l-.945,5.4a13.758,13.758,0,0,1,5.462-4.586,14.358,14.358,0,0,1,6.372-1.33c.295,0,.8.073,2.341.147l-1.954,11.168a9.182,9.182,0,0,0-4.9-1.184,8.929,8.929,0,0,0-5.71,1.775c-2.916,2.293-3.672,5.768-3.983,7.543l-2.471,14.126H259.56Z" transform="translate(-143.21 -136.086)" fill="#0070ac"/>
    </g>
    <g id="Group_732" data-name="Group 732" transform="translate(132.782 124.775)">
      <path id="Path_252" data-name="Path 252" d="M178.94,148.873l1.928-11.085s-27.51-.009-48.086,24.078C132.775,161.869,149.487,149.342,178.94,148.873Z" transform="translate(-132.782 -120.5)" fill="#f06d4b"/>
      <g id="Group_731" data-name="Group 731" transform="translate(12.612)">
        <path id="Path_763" data-name="Path 763" d="M157.873,149.845a87.225,87.225,0,0,0-13.462,3.817l-2.136,12.207h34.194l1.9-10.873h-21.4Z" transform="translate(-142.275 -116.539)" fill="#0070ac"/>
        <path id="Path_764" data-name="Path 764" d="M149.786,124.775l-4.1,23.45a67.824,67.824,0,0,1,10.731-4.981c1.065-.384,2.1-.725,3.117-1.034l1.148-6.564h21.4l1.9-10.871Z" transform="translate(-141.155 -124.775)" fill="#0070ac"/>
      </g>
    </g>
  </g>
</svg>
